# xmcd CD database file
#
# Track frame offsets:
#	150
#	20610
#	44273
#	46278
#	65170
#	85383
#	103570
#	142678
#	168183
#	179303
#
# Disc length: 2712 seconds
#
# Revision: 0
# Processed by: cddbd v1.5PL3 Copyright (c) Steve Scherf et al.
# Submitted via: CDex 1.51
#
DISCID=7e0a960a
DTITLE=Yutaka Fukuoka - Ur Words
DYEAR=1996
DGENRE=Pop
TTITLE0=Both Yens
TTITLE1=Circle Dance
TTITLE2=Yen Calling 1(Free Improvisation)
TTITLE3=Bon Voyage(Theme Of Pompidou)
TTITLE4=Lovin' Us(Earth)
TTITLE5=Shakti
TTITLE6=Hey Lula(Voice Of Saami)
TTITLE7=The Ghost Drum
TTITLE8=Yen Calling 2(Free Improvisation)
TTITLE9=Yen Calling 3(Free Improvisation)
EXTD=YEAR: 1996
EXTT0=
EXTT1=
EXTT2=
EXTT3=
EXTT4=
EXTT5=
EXTT6=
EXTT7=
EXTT8=
EXTT9=
PLAYORDER=
